<svg width="650" height="171" viewBox="0 0 650 171" fill="none" xmlns="http://www.w3.org/2000/svg">
<g clip-path="url(#clip0_0_43)">
<g clip-path="url(#clip1_0_43)">
<mask id="path-1-inside-1_0_43" fill="white">
<path d="M62.5 16.45H76.25C85 15.2 93.75 16.45 101.25 20.2C112.5 25.2 120 35.2 122.5 46.45C125 52.7 125 52.7 130 50.2H133.75V2.70001H0V11.45H5C10 11.45 15 13.95 17.5 17.7C23.75 25.2 23.75 35.2 23.75 82.7C23.75 133.95 22.5 146.45 17.5 152.7C15 156.45 11.25 157.7 7.5 157.7C0 160.2 0 160.2 0 162.7C0 163.95 0 165.2 0 166.45H85C86.25 163.95 86.25 161.45 85 158.95C82.5 158.95 81.25 157.7 78.75 157.7C76.25 157.7 73.75 156.45 72.5 156.45C66.25 151.45 62.5 143.95 63.75 136.45C61.25 127.7 61.25 112.7 61.25 100.2V90.2H66.25C72.5 90.2 78.75 90.2 85 92.7C91.25 96.45 95 102.7 96.25 108.95V112.7H103.75V57.7H96.25V62.7C95 70.2 91.25 75.2 85 78.95C81.25 80.2 78.75 80.2 75 80.2H61.25V66.45C61.25 52.7 62.5 22.7 62.5 17.7V16.45ZM647.5 115.2C641.25 105.2 632.5 98.95 621.25 95.2C612.5 92.7 605 88.95 598.75 82.7C596.25 80.2 595 75.2 595 71.45C595 67.7 596.25 63.95 600 61.45C603.75 57.7 610 56.45 615 57.7C626.25 61.45 635 70.2 637.5 81.45C640 86.45 640 86.45 643.75 85.2L646.25 83.95V52.7L645 51.45C632.5 47.7 620 45.2 606.25 46.45C595 46.45 583.75 51.45 576.25 58.95C568.75 66.45 565 75.2 565 86.45C565 93.95 567.5 101.45 573.75 106.45C580 112.7 587.5 116.45 595 118.95C613.75 126.45 620 131.45 620 140.2C620 147.7 615 155.2 607.5 156.45C603.75 157.7 598.75 157.7 593.75 156.45C582.5 151.45 573.75 142.7 570 130.2L568.75 126.45H566.25C565 126.45 563.75 126.45 563.75 127.7H562.5V162.7H565C573.75 165.2 582.5 167.7 591.25 168.95H603.75C608.75 168.95 615 168.95 620 167.7C633.75 165.2 645 155.2 650 142.7C651.25 138.95 652.5 135.2 652.5 131.45C651.25 125.2 650 120.2 647.5 115.2ZM530 50.2C515 43.95 497.5 43.95 482.5 51.45C468.75 57.7 458.75 70.2 453.75 85.2C451.25 92.7 450 101.45 450 110.2C450 115.2 450 118.95 451.25 123.95C455 146.45 473.75 165.2 496.25 168.95C503.75 170.2 511.25 170.2 518.75 168.95C526.25 167.7 533.75 165.2 540 161.45C545 158.95 550 153.95 553.75 148.95C553.75 147.7 552.5 146.45 551.25 145.2C550 145.2 548.75 146.45 547.5 147.7C541.25 151.45 533.75 153.95 526.25 153.95C516.25 155.2 506.25 150.2 500 143.95C497.5 141.45 495 138.95 493.75 135.2C490 127.7 487.5 118.95 487.5 110.2V103.95H556.25V101.45C556.25 98.95 556.25 96.45 556.25 93.95C555 76.45 545 58.95 530 50.2ZM495 93.95H486.25V86.45C488.75 67.7 496.25 56.45 505 56.45C513.75 56.45 517.5 67.7 518.75 87.7V93.95H511.25H495ZM315 46.45C311.25 46.45 306.25 47.7 302.5 48.95C293.75 52.7 287.5 60.2 283.75 68.95L282.5 71.45V46.45H281.25C280 46.45 233.75 55.2 232.5 56.45C231.25 57.7 231.25 57.7 231.25 58.95C231.25 60.2 231.25 61.45 232.5 61.45L236.25 62.7C238.75 62.7 241.25 63.95 243.75 66.45C246.25 70.2 247.5 77.7 247.5 108.95C247.5 122.7 247.5 136.45 246.25 150.2C245 153.95 242.5 157.7 237.5 157.7L233.75 158.95H232.5V162.7C232.5 163.95 232.5 165.2 232.5 166.45H302.5V162.7C302.5 161.45 302.5 160.2 302.5 158.95C298.75 158.95 293.75 157.7 290 157.7C285 155.2 282.5 150.2 283.75 145.2C281.25 137.7 280 116.45 281.25 100.2C282.5 83.95 281.25 82.7 282.5 81.45C286.25 77.7 291.25 76.45 297.5 76.45C302.5 76.45 307.5 77.7 311.25 80.2C312.5 81.45 315 81.45 316.25 82.7C316.25 82.7 328.75 52.7 328.75 51.45C325 47.7 320 45.2 315 46.45ZM231.25 98.95C230 81.45 221.25 63.95 205 53.95C186.25 43.95 165 43.95 146.25 52.7C133.75 58.95 123.75 71.45 118.75 85.2C113.75 101.45 113.75 117.7 118.75 132.7C121.25 141.45 126.25 148.95 132.5 155.2C140 162.7 150 167.7 161.25 168.95C168.75 168.95 175 168.95 182.5 168.95C185 168.95 187.5 167.7 190 167.7C211.25 161.45 226.25 145.2 230 122.7C231.25 115.2 231.25 107.7 231.25 98.95ZM178.75 161.45C166.25 165.2 156.25 152.7 153.75 127.7C152.5 113.95 152.5 101.45 153.75 87.7C156.25 67.7 162.5 56.45 172.5 56.45C176.25 56.45 180 57.7 182.5 61.45C191.25 70.2 195 86.45 195 111.45C196.25 125.2 193.75 140.2 188.75 152.7C187.5 156.45 183.75 158.95 178.75 161.45ZM403.75 48.95C400 48.95 396.25 48.95 393.75 48.95C387.5 48.95 380 50.2 373.75 52.7L370 53.95V27.7C371.25 18.95 371.25 8.95001 370 0.200012C368.75 0.200012 321.25 8.95001 320 10.2C320 11.45 320 12.7 320 12.7C320 15.2 320 15.2 326.25 16.45C327.5 16.45 328.75 17.7 331.25 17.7C333.75 20.2 335 22.7 336.25 26.45C337.5 36.45 338.75 45.2 337.5 55.2V165.2L341.25 166.45C346.25 167.7 360 170.2 365 170.2C373.75 171.45 383.75 171.45 392.5 170.2C413.75 167.7 431.25 153.95 438.75 135.2C441.25 128.95 442.5 122.7 443.75 116.45C445 107.7 443.75 98.95 442.5 90.2C438.75 68.95 423.75 52.7 403.75 48.95ZM371.25 158.95C371.25 157.7 370 102.7 370 80.2V63.95L373.75 62.7C376.25 62.7 378.75 62.7 381.25 62.7C383.75 62.7 386.25 62.7 388.75 63.95C398.75 70.2 403.75 81.45 405 92.7C406.25 101.45 406.25 111.45 405 120.2C403.75 133.95 398.75 146.45 390 156.45C387.5 158.95 385 160.2 381.25 161.45C378.75 161.45 376.25 161.45 373.75 161.45C371.25 161.45 371.25 160.2 371.25 158.95Z"/>
</mask>
<path d="M62.5 16.45H76.25C85 15.2 93.75 16.45 101.25 20.2C112.5 25.2 120 35.2 122.5 46.45C125 52.7 125 52.7 130 50.2H133.75V2.70001H0V11.45H5C10 11.45 15 13.95 17.5 17.7C23.75 25.2 23.75 35.2 23.75 82.7C23.75 133.95 22.5 146.45 17.5 152.7C15 156.45 11.25 157.7 7.5 157.7C0 160.2 0 160.2 0 162.7C0 163.95 0 165.2 0 166.45H85C86.25 163.95 86.25 161.45 85 158.95C82.5 158.95 81.25 157.7 78.75 157.7C76.25 157.7 73.75 156.45 72.5 156.45C66.25 151.45 62.5 143.95 63.75 136.45C61.25 127.7 61.25 112.7 61.25 100.2V90.2H66.25C72.5 90.2 78.75 90.2 85 92.7C91.25 96.45 95 102.7 96.25 108.95V112.7H103.75V57.7H96.25V62.7C95 70.2 91.25 75.2 85 78.95C81.25 80.2 78.75 80.2 75 80.2H61.25V66.45C61.25 52.7 62.5 22.7 62.5 17.7V16.45ZM647.5 115.2C641.25 105.2 632.5 98.95 621.25 95.2C612.5 92.7 605 88.95 598.75 82.7C596.25 80.2 595 75.2 595 71.45C595 67.7 596.25 63.95 600 61.45C603.75 57.7 610 56.45 615 57.7C626.25 61.45 635 70.2 637.5 81.45C640 86.45 640 86.45 643.75 85.2L646.25 83.95V52.7L645 51.45C632.5 47.7 620 45.2 606.25 46.45C595 46.45 583.75 51.45 576.25 58.95C568.75 66.45 565 75.2 565 86.45C565 93.95 567.5 101.45 573.75 106.45C580 112.7 587.5 116.45 595 118.95C613.75 126.45 620 131.45 620 140.2C620 147.7 615 155.2 607.5 156.45C603.75 157.7 598.75 157.7 593.75 156.45C582.5 151.45 573.75 142.7 570 130.2L568.75 126.45H566.25C565 126.45 563.75 126.45 563.75 127.7H562.5V162.7H565C573.75 165.2 582.5 167.7 591.25 168.95H603.75C608.75 168.95 615 168.95 620 167.7C633.75 165.2 645 155.2 650 142.7C651.25 138.95 652.5 135.2 652.5 131.45C651.25 125.2 650 120.2 647.5 115.2ZM530 50.2C515 43.95 497.5 43.95 482.5 51.45C468.75 57.7 458.75 70.2 453.75 85.2C451.25 92.7 450 101.45 450 110.2C450 115.2 450 118.95 451.25 123.95C455 146.45 473.75 165.2 496.25 168.95C503.75 170.2 511.25 170.2 518.75 168.95C526.25 167.7 533.75 165.2 540 161.45C545 158.95 550 153.95 553.75 148.95C553.75 147.7 552.5 146.45 551.25 145.2C550 145.2 548.75 146.45 547.5 147.7C541.25 151.45 533.75 153.95 526.25 153.95C516.25 155.2 506.25 150.2 500 143.95C497.5 141.45 495 138.95 493.75 135.2C490 127.7 487.5 118.95 487.5 110.2V103.95H556.25V101.45C556.25 98.95 556.25 96.45 556.25 93.95C555 76.45 545 58.95 530 50.2ZM495 93.95H486.25V86.45C488.75 67.7 496.25 56.45 505 56.45C513.75 56.45 517.5 67.7 518.75 87.7V93.95H511.25H495ZM315 46.45C311.25 46.45 306.25 47.7 302.5 48.95C293.75 52.7 287.5 60.2 283.75 68.95L282.5 71.45V46.45H281.25C280 46.45 233.75 55.2 232.5 56.45C231.25 57.7 231.25 57.7 231.25 58.95C231.25 60.2 231.25 61.45 232.5 61.45L236.25 62.7C238.75 62.7 241.25 63.95 243.75 66.45C246.25 70.2 247.5 77.7 247.5 108.95C247.5 122.7 247.5 136.45 246.25 150.2C245 153.95 242.5 157.7 237.5 157.7L233.75 158.95H232.5V162.7C232.5 163.95 232.5 165.2 232.5 166.45H302.5V162.7C302.5 161.45 302.5 160.2 302.5 158.95C298.75 158.95 293.75 157.7 290 157.7C285 155.2 282.5 150.2 283.75 145.2C281.25 137.7 280 116.45 281.25 100.2C282.5 83.95 281.25 82.7 282.5 81.45C286.25 77.7 291.25 76.45 297.5 76.45C302.5 76.45 307.5 77.7 311.25 80.2C312.5 81.45 315 81.45 316.25 82.7C316.25 82.7 328.75 52.7 328.75 51.45C325 47.7 320 45.2 315 46.45ZM231.25 98.95C230 81.45 221.25 63.95 205 53.95C186.25 43.95 165 43.95 146.25 52.7C133.75 58.95 123.75 71.45 118.75 85.2C113.75 101.45 113.75 117.7 118.75 132.7C121.25 141.45 126.25 148.95 132.5 155.2C140 162.7 150 167.7 161.25 168.95C168.75 168.95 175 168.95 182.5 168.95C185 168.95 187.5 167.7 190 167.7C211.25 161.45 226.25 145.2 230 122.7C231.25 115.2 231.25 107.7 231.25 98.95ZM178.75 161.45C166.25 165.2 156.25 152.7 153.75 127.7C152.5 113.95 152.5 101.45 153.75 87.7C156.25 67.7 162.5 56.45 172.5 56.45C176.25 56.45 180 57.7 182.5 61.45C191.25 70.2 195 86.45 195 111.45C196.25 125.2 193.75 140.2 188.75 152.7C187.5 156.45 183.75 158.95 178.75 161.45ZM403.75 48.95C400 48.95 396.25 48.95 393.75 48.95C387.5 48.95 380 50.2 373.75 52.7L370 53.95V27.7C371.25 18.95 371.25 8.95001 370 0.200012C368.75 0.200012 321.25 8.95001 320 10.2C320 11.45 320 12.7 320 12.7C320 15.2 320 15.2 326.25 16.45C327.5 16.45 328.75 17.7 331.25 17.7C333.75 20.2 335 22.7 336.25 26.45C337.5 36.45 338.75 45.2 337.5 55.2V165.2L341.25 166.45C346.25 167.7 360 170.2 365 170.2C373.75 171.45 383.75 171.45 392.5 170.2C413.75 167.7 431.25 153.95 438.75 135.2C441.25 128.95 442.5 122.7 443.75 116.45C445 107.7 443.75 98.95 442.5 90.2C438.75 68.95 423.75 52.7 403.75 48.95ZM371.25 158.95C371.25 157.7 370 102.7 370 80.2V63.95L373.75 62.7C376.25 62.7 378.75 62.7 381.25 62.7C383.75 62.7 386.25 62.7 388.75 63.95C398.75 70.2 403.75 81.45 405 92.7C406.25 101.45 406.25 111.45 405 120.2C403.75 133.95 398.75 146.45 390 156.45C387.5 158.95 385 160.2 381.25 161.45C378.75 161.45 376.25 161.45 373.75 161.45C371.25 161.45 371.25 160.2 371.25 158.95Z" fill="white" stroke="black" stroke-width="2" mask="url(#path-1-inside-1_0_43)"/>
</g>
</g>
<defs>
<clipPath id="clip0_0_43">
<rect width="650" height="170" fill="white" transform="translate(0 0.200012)"/>
</clipPath>
<clipPath id="clip1_0_43">
<rect width="650" height="170" fill="white" transform="translate(0 0.200012)"/>
</clipPath>
</defs>
</svg>
